<svg width="34" height="37" viewBox="0 0 34 37" fill="none" xmlns="http://www.w3.org/2000/svg">
<path d="M33.4634 10.7866C33.2645 10.5878 32.9683 10.5223 32.7039 10.6191L27.7695 12.4261C27.6709 12.4622 27.5813 12.5194 27.507 12.5936L26.1196 13.9811L17.0599 4.92136C16.9244 4.78586 16.7406 4.7097 16.5489 4.7097C16.3573 4.7097 16.1734 4.78586 16.0379 4.92136L5.13287 15.8264H2.4675L16.5489 1.74493L24.2762 9.47221C24.5585 9.75441 25.0159 9.75441 25.2983 9.47221C25.5805 9.19001 25.5805 8.73243 25.2983 8.45016L17.06 0.211892C16.7777 -0.0703051 16.3203 -0.0703051 16.0379 0.211892L0.211807 16.038C0.00520045 16.2447 -0.0566588 16.5555 0.0551359 16.8256C0.167003 17.0957 0.430483 17.2718 0.722797 17.2718H1.44545V36.2776C1.44545 36.6767 1.76906 37.0002 2.16811 37.0002H13.6573C14.0564 37.0002 14.38 36.6767 14.38 36.2776C14.38 35.8785 14.0564 35.5549 13.6573 35.5549H2.89076V17.2718H5.43219C5.62384 17.2718 5.80761 17.1956 5.94318 17.0601L16.5489 6.45433L25.0975 15.003L14.381 25.7196V19.2229H19.4396C19.8386 19.2229 20.1622 18.8994 20.1622 18.5003C20.1622 18.1011 19.8386 17.7776 19.4396 17.7776H13.6583C13.2593 17.7776 12.9357 18.1011 12.9357 18.5003V26.8831C12.9357 26.9674 12.9508 27.0479 12.9774 27.1231L12.3299 27.7706C11.186 28.9145 11.186 30.7759 12.3299 31.9199C12.902 32.492 13.6532 32.778 14.4046 32.7779C15.1559 32.7779 15.9074 32.4919 16.4793 31.92L22.5736 25.8257C22.8558 25.5435 22.8558 25.0859 22.5736 24.8037C22.2914 24.5215 21.8339 24.5215 21.5515 24.8037L16.9343 29.4209L14.829 27.3156L28.0324 14.1122L30.1377 16.2175L25.0925 21.2628C24.8103 21.545 24.8103 22.0025 25.0925 22.2847C25.3748 22.5669 25.8322 22.5669 26.1146 22.2847L31.6563 16.743C31.7305 16.6687 31.7878 16.5791 31.8238 16.4805L33.6309 11.5462C33.7277 11.282 33.6623 10.9856 33.4634 10.7866ZM15.9124 30.4428L15.4573 30.8979C15.1761 31.1791 14.8024 31.334 14.4047 31.334C14.007 31.334 13.6332 31.1791 13.3521 30.8979C13.0708 30.6167 12.916 30.2429 12.916 29.8453C12.916 29.4477 13.0707 29.0738 13.352 28.7926L13.8071 28.3375L15.9124 30.4428ZM30.8637 14.8993L29.3506 13.3862L31.7381 12.5118L30.8637 14.8993Z" fill="#95E1D3"/>
</svg>
