<svg width="24" height="19" viewBox="0 0 24 19" fill="none" xmlns="http://www.w3.org/2000/svg">
<path d="M21.2166 4.81667H15.7901L4.07343 0.5H2.71664C1.66818 0.5 0.866638 1.30155 0.866638 2.35V14.6833C0.866638 15.7318 1.66818 16.5333 2.71664 16.5333H4.07343L15.7901 11.6H17.5166V17.15C17.5166 18.1985 18.3182 19 19.3666 19C20.4151 19 21.2166 18.1985 21.2166 17.15V11.6C22.2651 11.6 23.0666 10.7985 23.0666 9.75V6.66667C23.0666 5.61821 22.2651 4.81667 21.2166 4.81667ZM4.56664 1.97994L15.05 5.86512V10.5515L4.56664 14.9917V1.97994ZM2.09997 14.6833V2.35C2.09997 1.97994 2.34658 1.73333 2.71664 1.73333H3.3333V15.3H2.71664C2.34658 15.3 2.09997 15.0534 2.09997 14.6833ZM19.9833 17.15C19.9833 17.5201 19.7367 17.7667 19.3666 17.7667C18.9966 17.7667 18.75 17.5201 18.75 17.15V11.6H19.9833V17.15ZM21.8333 9.75C21.8333 10.1201 21.5867 10.3667 21.2166 10.3667H16.2833V6.05H21.2166C21.5867 6.05 21.8333 6.29661 21.8333 6.66667V9.75Z" fill="#95E1D3"/>
</svg>
